<mxfile host="app.diagrams.net" modified="2023-05-16T07:25:12.890Z" agent="Mozilla/5.0 (Windows NT 10.0; Win64; x64) AppleWebKit/537.36 (KHTML, like Gecko) Chrome/113.0.0.0 Safari/537.36 Edg/113.0.1774.42" etag="9txdN5vrdEuSk8Iqlskb" version="21.3.2" type="device">
  <diagram name="Page-1" id="WD1LmY0RTJz6kkx9pJ5j">
    <mxGraphModel dx="1434" dy="788" grid="1" gridSize="10" guides="1" tooltips="1" connect="1" arrows="1" fold="1" page="1" pageScale="1" pageWidth="1200" pageHeight="1920" math="0" shadow="0">
      <root>
        <mxCell id="0" />
        <mxCell id="1" parent="0" />
        <mxCell id="xVaN1aLkHs_rfalM2R6l-17" value="" style="edgeStyle=orthogonalEdgeStyle;rounded=0;orthogonalLoop=1;jettySize=auto;html=1;" edge="1" parent="1" source="xVaN1aLkHs_rfalM2R6l-1" target="xVaN1aLkHs_rfalM2R6l-2">
          <mxGeometry relative="1" as="geometry" />
        </mxCell>
        <mxCell id="xVaN1aLkHs_rfalM2R6l-1" value="Requirement&lt;br&gt;Gathering" style="rounded=0;whiteSpace=wrap;html=1;" vertex="1" parent="1">
          <mxGeometry x="80" y="40" width="120" height="40" as="geometry" />
        </mxCell>
        <mxCell id="xVaN1aLkHs_rfalM2R6l-28" style="edgeStyle=orthogonalEdgeStyle;rounded=0;orthogonalLoop=1;jettySize=auto;html=1;entryX=0;entryY=0.5;entryDx=0;entryDy=0;" edge="1" parent="1" source="xVaN1aLkHs_rfalM2R6l-2" target="xVaN1aLkHs_rfalM2R6l-4">
          <mxGeometry relative="1" as="geometry" />
        </mxCell>
        <mxCell id="xVaN1aLkHs_rfalM2R6l-2" value="Hardware Design" style="rounded=0;whiteSpace=wrap;html=1;" vertex="1" parent="1">
          <mxGeometry x="100" y="120" width="80" height="40" as="geometry" />
        </mxCell>
        <mxCell id="xVaN1aLkHs_rfalM2R6l-4" value="Software&lt;br&gt;Design" style="rounded=0;whiteSpace=wrap;html=1;" vertex="1" parent="1">
          <mxGeometry x="240" y="120" width="80" height="40" as="geometry" />
        </mxCell>
        <mxCell id="xVaN1aLkHs_rfalM2R6l-24" style="edgeStyle=orthogonalEdgeStyle;rounded=0;orthogonalLoop=1;jettySize=auto;html=1;entryX=0.5;entryY=0;entryDx=0;entryDy=0;" edge="1" parent="1" source="xVaN1aLkHs_rfalM2R6l-7" target="xVaN1aLkHs_rfalM2R6l-8">
          <mxGeometry relative="1" as="geometry" />
        </mxCell>
        <mxCell id="xVaN1aLkHs_rfalM2R6l-7" value="Hardware Design" style="rounded=0;whiteSpace=wrap;html=1;" vertex="1" parent="1">
          <mxGeometry x="460" y="120" width="80" height="40" as="geometry" />
        </mxCell>
        <mxCell id="xVaN1aLkHs_rfalM2R6l-25" style="edgeStyle=orthogonalEdgeStyle;rounded=0;orthogonalLoop=1;jettySize=auto;html=1;exitX=0.5;exitY=1;exitDx=0;exitDy=0;entryX=1;entryY=0.5;entryDx=0;entryDy=0;" edge="1" parent="1" source="xVaN1aLkHs_rfalM2R6l-8" target="xVaN1aLkHs_rfalM2R6l-9">
          <mxGeometry relative="1" as="geometry" />
        </mxCell>
        <mxCell id="xVaN1aLkHs_rfalM2R6l-8" value="Software&lt;br&gt;Design" style="rounded=0;whiteSpace=wrap;html=1;" vertex="1" parent="1">
          <mxGeometry x="560" y="200" width="80" height="40" as="geometry" />
        </mxCell>
        <mxCell id="xVaN1aLkHs_rfalM2R6l-26" style="edgeStyle=orthogonalEdgeStyle;rounded=0;orthogonalLoop=1;jettySize=auto;html=1;entryX=0;entryY=0.5;entryDx=0;entryDy=0;" edge="1" parent="1" source="xVaN1aLkHs_rfalM2R6l-9" target="xVaN1aLkHs_rfalM2R6l-16">
          <mxGeometry relative="1" as="geometry">
            <Array as="points">
              <mxPoint x="500" y="340" />
              <mxPoint x="670" y="340" />
              <mxPoint x="670" y="60" />
            </Array>
          </mxGeometry>
        </mxCell>
        <mxCell id="xVaN1aLkHs_rfalM2R6l-9" value="Feasibility&lt;br&gt;Assessment" style="rounded=0;whiteSpace=wrap;html=1;" vertex="1" parent="1">
          <mxGeometry x="460" y="280" width="80" height="40" as="geometry" />
        </mxCell>
        <mxCell id="xVaN1aLkHs_rfalM2R6l-11" value="Hardware Design" style="rounded=0;whiteSpace=wrap;html=1;" vertex="1" parent="1">
          <mxGeometry x="820" y="120" width="80" height="40" as="geometry" />
        </mxCell>
        <mxCell id="xVaN1aLkHs_rfalM2R6l-12" value="Software&lt;br&gt;Design" style="rounded=0;whiteSpace=wrap;html=1;" vertex="1" parent="1">
          <mxGeometry x="920" y="200" width="80" height="40" as="geometry" />
        </mxCell>
        <mxCell id="xVaN1aLkHs_rfalM2R6l-13" value="Feasibility&lt;br&gt;Assessment" style="rounded=0;whiteSpace=wrap;html=1;" vertex="1" parent="1">
          <mxGeometry x="820" y="280" width="80" height="40" as="geometry" />
        </mxCell>
        <mxCell id="xVaN1aLkHs_rfalM2R6l-14" value="Minor&lt;br&gt;Advancement" style="rounded=0;whiteSpace=wrap;html=1;" vertex="1" parent="1">
          <mxGeometry x="720" y="200" width="80" height="40" as="geometry" />
        </mxCell>
        <mxCell id="xVaN1aLkHs_rfalM2R6l-23" value="" style="edgeStyle=orthogonalEdgeStyle;rounded=0;orthogonalLoop=1;jettySize=auto;html=1;" edge="1" parent="1" source="xVaN1aLkHs_rfalM2R6l-15" target="xVaN1aLkHs_rfalM2R6l-7">
          <mxGeometry relative="1" as="geometry" />
        </mxCell>
        <mxCell id="xVaN1aLkHs_rfalM2R6l-15" value="Requirement&lt;br&gt;Gathering" style="rounded=0;whiteSpace=wrap;html=1;" vertex="1" parent="1">
          <mxGeometry x="440" y="40" width="120" height="40" as="geometry" />
        </mxCell>
        <mxCell id="xVaN1aLkHs_rfalM2R6l-16" value="Requirement&lt;br&gt;Gathering" style="rounded=0;whiteSpace=wrap;html=1;" vertex="1" parent="1">
          <mxGeometry x="800" y="40" width="120" height="40" as="geometry" />
        </mxCell>
      </root>
    </mxGraphModel>
  </diagram>
</mxfile>
